<svg xmlns="http://www.w3.org/2000/svg" viewBox="0 0 512 512"><defs><style>.cls-1{fill:#00abe7;}.cls-2{fill:none;}.cls-3{fill:#fff;}.cls-4{fill:#4d4d4d;}</style></defs><g id="favicon"><circle class="cls-1" cx="256" cy="252.61" r="243.61"/><path class="cls-2" d="M234.26,106.52l-.91-.31c.16.48.3,1,.43,1.45Z"/><path class="cls-3" d="M267.17,404.88h42.77V341.54c-9.13,12.19-17.64,24.92-27.74,36.24C274.74,386.14,269.1,394.74,267.17,404.88Z"/><path class="cls-3" d="M311,340.11l23.86,30.73,24-31.61h.37v65.65h55.43V270.22H364.44l-25.86,33.85-23.36-29.53c-3.74.27-7.56.42-11.48.43a19.37,19.37,0,0,1,.54,3.46c.91,16.08,10.62,31.45,10.39,47.8C314.62,329.82,311,340.11,311,340.11Z"/><path class="cls-3" d="M249.45,128.9c-.7,2.19-2.39,5-1.64,6.55,4.51,9.57-7.23,12.87-8.19,19.13-2.43,15.86-7.86,23.16,2.19,29.12,12.84,7.63,25.58,15.47,38.75,22.5,10,5.35,15.44,13.48,17,24.22,1.19,8.12,3.05,16.73,1.53,24.52-1.15,5.87,1.18,10.46,3.08,15.28h9.62l3.42,4.32c30.21-2.16,54.53-12.66,71.88-29.31,17-16.18,26.87-38.62,26.87-64.71,0-27.39-10.69-49-27.39-65-19-18.26-47.22-29.48-83.75-29.48h-70a56.06,56.06,0,0,1,5.69,2.86C246.7,93.67,254.55,113,249.45,128.9Zm52.08,18.75h2.35c14.34,0,23.21,4.44,28.69,10.18,5.22,5.47,8.61,13.3,8.61,22.69a31.58,31.58,0,0,1-8.61,22.18c-6.26,6.52-16.17,10.7-29.22,10.7h-1.82Z"/><path class="cls-3" d="M302.18,270.22a34.73,34.73,0,0,1,1.56,4.75c3.92,0,7.74-.16,11.48-.43l-3.42-4.32Z"/><path d="M149.24,252.68C148,258,146.9,263.41,146,268.83c-.21,1.28-.47,2.61-.76,4l3.61.36Q149,262.9,149.24,252.68Z"/><path class="cls-4" d="M148.88,273.15c2.15.21,4.29.43,6.44.63,1.56.14,3.12.26,4.68.37,2.54.19,5.08.38,7.61.63,7.77.76,15.54,1.59,23.3,2.42,2.22.24,3.14,1.68,3.47,3.78,1.21,7.67,2.54,15.32,3.76,23q2,12.66,3.86,25.36c.18,1.26.53,1.74,1.83,1.92,7.48,1,14.94,2.2,22.41,3.3,5.6.82,11.22,1.57,16.81,2.46.9.15,2.31.8,2.4,1.38a3.65,3.65,0,0,1-1.15,2.8c-6.36,5.45-12.76,10.85-19.25,16.13-3.18,2.58-6.5,5-9.91,7.25a52.71,52.71,0,0,1-7.45,4c-.79.35-2-.24-2.95-.17-8,.55-15.5-2.39-23.23-3.69-9-1.52-18.07-3.28-27.1-5l-13.8-2.6-7.26-1.37-1.95-.35-6.63-1.22-2.45-.45c.14,2.39.39,5.12.74,8.12,1.39,12.19,4.26,28.68,6.8,43.35H239.72c-2.21-12-4.8-20.75,7.68-29.77,15.65-11.3,8.93,9.62,19.23-1.91,10.62-11.9,19.47-25.37,29.14-38.13a11.82,11.82,0,0,1,1.83-1.77,2.78,2.78,0,0,0,1-2l.48-9.23a2.82,2.82,0,0,0-.08-.82c-3.74-15.78-9.39-31.46-10.3-47.4-.48-8.46-6.94-14.47-5.18-23.49,1.53-7.79-.33-16.4-1.52-24.52-1.57-10.74-7-18.87-17-24.22-13.17-7-25.91-14.87-38.76-22.5-7.4-4.39-9.32-13.53-6.68-21.42.48-1.46.57-3.42,1.91-4.22,1.65-1,4.29-.34,5.6-1.9,1.16-1.37,3.25-6.37,5-10.34a10.91,10.91,0,0,0,1.18-3,5.08,5.08,0,0,0,.3-2.67l-.12-.32a12.82,12.82,0,0,0-1.23-4.34c-.74-1.57.94-4.36,1.65-6.55l0-.13a30.36,30.36,0,0,0-.13-16.87c-.13-.48-.27-1-.43-1.45-3.86-12.14-14.23-23.27-29.63-23.39h-1.64c-25.23-.18-30,0-30,0a155.9,155.9,0,0,0-3.53,17c-.1.64-.2,1.28-.29,2-.24,1.67-.45,3.42-.65,5.21a129.24,129.24,0,0,0-.78,15.88c-.15,2.78-.35,5.48-1.55,7.88a10.67,10.67,0,0,0-.91,6.32c.5,5.23.46,8.62,1.71,12.48.75,2.33,1.58,5.12,4.68,12.64a2.36,2.36,0,0,0,.28.52,11.39,11.39,0,0,1,1.8,2.1,29.54,29.54,0,0,1,1.57,5.28c1.08,2.64,1.68,9.07-12.59,16.25-13.5,5.66-16.51,6.74-18.7,22.14-1,7.33-3.51,14.44-5.17,21.69-2.63,11.52-5.67,23-7.54,34.64-.34,2.09-.8,4.29-1.36,6.57,2.39.18,4.78.35,7.17.58,3,.28,6,.58,9,.88Zm63.77-155.3c-2.46.68-2.83,2.9-4.7,4.63a25.27,25.27,0,0,0-3.32,4.15,3.15,3.15,0,0,0-.53,1.11,3.11,3.11,0,0,0,.07.44c.39,4.06,5.74,5.49,7.15,8.56,1.16,2.51-.25,6.65-1.43,9.7-1.86,4.83-2.72,10.92-5.91,14.7a21.59,21.59,0,0,1-4,2.1c-1.55.63-2.87,1.73-4.64.84-1-.53-1.7.42-2.49,1-2.71,2.16-5.66,3.27-9,2.2-1.71-.54-2.67-1.88-2-3.67,1.17-3.15-.59-4.17-2.52-5.3-.7-.42-1.94-.55-1.65-1.84s1.42-.84,2.24-.87c2.16-.09,4.32-.08,6.48-.14.49,0,1.17.07,1.28-.66s-.52-.91-1-1.15a12.34,12.34,0,0,0-6-1.27c-3.08.08-3.24-.66-2.32-3.82s2.46-4.47,5.38-3.66c.49.14,1.13.15,1.34-.51.29-.92-.5-1.18-1-1.41a3.7,3.7,0,0,0-2.22-.61c-2.22.58-4.17.67-6.05-1.21-.87-.87-1.32.28-1.46,1.19a8.93,8.93,0,0,1-2.3,4.46c-1.35,1.54-2.79,1.09-3.3-1a18.34,18.34,0,0,1-.33-6.05c.18-2,1.74-1.87,3-2.11,2.26-.44,4.83-.09,6.19-2.81,1.47-2.92,4-6.2,2.78-9.4-1.16-3-3.79-6.49-6.8-7.25l-1-.27c.34-1.38.68-2.77,1.06-4.13,1.84-6.43,4.56-6.4,8.83-8.07a3.25,3.25,0,0,0,.68-.39c5.05-3.79,8.73-5.75,11.84-6.68q1.59,0,3.18-.09c.22,0,.42,0,.64,0,.7.08,1.4.16,2.1.19,3.93.69,7.1,3.17,9.94,6.4a3.38,3.38,0,0,1,.75,4.13c-.88,1.88.66,7.23,2.24,8l.1.06C213.45,117.56,213.11,117.72,212.65,117.85Z"/><path class="cls-3" d="M149.31,318.08l-4.34-.32Z"/><path class="cls-3" d="M195.55,322.08c-.94-5.9-1.88-11.8-2.88-17.69-1.15-6.8-2.4-13.58-3.55-20.38-.31-1.86-1.18-3.14-3.28-3.35-7.34-.73-14.67-1.47-22-2.14-1.49-.14-3-.24-4.46-.35-2.39-.17-4.78-.33-7.16-.54l-3.34-.31-4.58-.42c-3.37-.32-6.73-.63-10.1-.93-2.07-.18-4.14-.32-6.22-.47-1.8-.13-3.6-.26-5.4-.44-5-.48-9.9-1.13-14.86-1.62-5.12-.5-10.25-.85-15.38-1.33-6.46-.6-12.91-1.26-19.37-1.89l0,.25c-1.13,0-2.26,0-3.39,0-3.8,0-4.7,1.15-3.63,4.53q1.17,3.69,2.46,7.34,9.74,27.39,19.5,54.75c.63,1.76,1.31,3.54,3.43,4.42a77.1,77.1,0,0,0,15.33,4.59c1,.19,1.93.37,2.91.52,2.14.34,4.27.7,6.4,1.05l6.3,1.05,3.62.63,5.59,1,.13,0,10.15,1.79,9.62,1.7c8.54,1.49,17.06,3.05,25.62,4.4,7.31,1.15,14.37,3.76,22,3.27a3.7,3.7,0,0,1,.93.08C198.59,349.76,196.76,332.87,195.55,322.08Zm-62.49,1.5a7.19,7.19,0,0,1-1.5.16h-.06a9,9,0,0,1-3.14-.59,11.2,11.2,0,0,1-6.81-7.25,7.71,7.71,0,0,1-.27-1.91,5.66,5.66,0,0,1,6-5.94,10,10,0,0,1,5.72,2,10.87,10.87,0,0,1,4.23,5.87,8.34,8.34,0,0,1,.27,2A5.55,5.55,0,0,1,133.06,323.58Z"/></g></svg>