<svg id="Layer_1" data-name="Layer 1" xmlns="http://www.w3.org/2000/svg" xmlns:xlink="http://www.w3.org/1999/xlink" viewBox="0 0 312.13 129.36"><defs><style>.cls-1{fill:#4f4f4f;}.cls-2{fill:url(#linear-gradient);}.cls-3{fill:url(#linear-gradient-2);}.cls-4{fill:#fff;}</style><linearGradient id="linear-gradient" x1="5.13" y1="486.15" x2="259.98" y2="534.57" gradientTransform="matrix(1, 0, 0, -1, 7.07, 626.07)" gradientUnits="userSpaceOnUse"><stop offset="0" stop-color="#ff27d6"/><stop offset="0.04" stop-color="#f130d8"/><stop offset="0.32" stop-color="#9f65e1"/><stop offset="0.56" stop-color="#5e8fe8"/><stop offset="0.76" stop-color="#2fadee"/><stop offset="0.91" stop-color="#12c0f1"/><stop offset="1" stop-color="#07c7f2"/></linearGradient><linearGradient id="linear-gradient-2" x1="75.28" y1="623.54" x2="194.53" y2="517.92" gradientTransform="matrix(1, 0, 0, -1, 0, 632)" gradientUnits="userSpaceOnUse"><stop offset="0" stop-color="#ff27d6"/><stop offset="0.09" stop-color="#f82bd7"/><stop offset="0.22" stop-color="#e538d9"/><stop offset="0.37" stop-color="#c64cdc"/><stop offset="0.55" stop-color="#9a68e1"/><stop offset="0.74" stop-color="#628ce8"/><stop offset="0.93" stop-color="#1fb8ef"/><stop offset="1" stop-color="#07c7f2"/></linearGradient></defs><path class="cls-1" d="M152.64,116l-111.12-3,111.21-17.2L264,113.06Z"/><polygon class="cls-2" points="152.67 118.61 152.6 118.61 40.17 115.62 40.24 113.02 152.64 116.01 265.24 113.03 265.31 115.63 152.67 118.61"/><path class="cls-1" d="M151.15,10.67,38.85,41.31a5.19,5.19,0,0,0-3.83,5v61.49A5.19,5.19,0,0,0,41,113L151.75,96.29a5.67,5.67,0,0,1,1.54,0L264.5,113a5.19,5.19,0,0,0,6-5.13V46.32a5.19,5.19,0,0,0-3.83-5L153.88,10.67A5.27,5.27,0,0,0,151.15,10.67Z"/><path class="cls-3" d="M265.27,115.61a7.65,7.65,0,0,1-1.16-.09L152.9,98.86a2.49,2.49,0,0,0-.77,0L41.37,115.52a7.79,7.79,0,0,1-8.95-7.71V46.32a7.8,7.8,0,0,1,5.74-7.52L150.47,8.17a7.78,7.78,0,0,1,4.09,0L267.31,38.8a7.8,7.8,0,0,1,5.75,7.52v61.5a7.8,7.8,0,0,1-7.79,7.79ZM152.52,96.24a6.64,6.64,0,0,1,.77.05L264.5,113a5.19,5.19,0,0,0,6-5.13V46.32a5.19,5.19,0,0,0-3.83-5L153.88,10.67a5.27,5.27,0,0,0-2.73,0L38.85,41.31a5.19,5.19,0,0,0-3.83,5v61.49A5.19,5.19,0,0,0,41,113L151.75,96.29A6.49,6.49,0,0,1,152.52,96.24Z"/><path class="cls-4" d="M49.31,96l-2.26.38A1.17,1.17,0,0,1,45.71,95l8.34-38c.94-4.26,2.68-6.24,5.38-7s4.48.38,5.41,4.25l8.8,36.34A1.17,1.17,0,0,1,72.71,92l-3,.5a1.16,1.16,0,0,1-1.33-.88L60.64,59c-.23-1-.65-1.33-1.26-1.18s-1,.71-1.3,1.8L50.25,95.14A1.18,1.18,0,0,1,49.31,96Z"/><path class="cls-4" d="M79.55,45.53A1.16,1.16,0,0,1,81,46.66v28.2c0,4.38,1.35,7.57,5.84,6.73l10.1-1.88a1.15,1.15,0,0,1,1.37,1.14v5.86a1.14,1.14,0,0,1-1,1.14L86.54,89.7C79,91,76.12,84.94,76.12,75.93V47.33A1.15,1.15,0,0,1,77,46.21Z"/><path class="cls-4" d="M128.35,34.26v6.31a1.15,1.15,0,0,1-.88,1.12l-12.4,3.05C110,46,108.52,50,108.52,54.45v3.11a1.15,1.15,0,0,0,1.4,1.13L126.79,55a1.15,1.15,0,0,1,1.4,1.13V62a1.15,1.15,0,0,1-.92,1.12l-17.83,3.69a1.14,1.14,0,0,0-.92,1.12V85a1.16,1.16,0,0,1-1,1.14l-3.13.53a1.15,1.15,0,0,1-1.34-1.13V55.77c0-9.5,3.21-17.23,11.6-19.42l12.22-3.2A1.15,1.15,0,0,1,128.35,34.26Z"/><path class="cls-4" d="M202,40.23v6a1.15,1.15,0,0,1-1.42,1.12l-14.48-3.57c-3.47-.85-5,1.19-5,5,0,4,1.72,6.24,5,7L200.91,59a1.14,1.14,0,0,1,.9,1.12v5.2a1.14,1.14,0,0,1-1.38,1.12l-14.39-3c-3.32-.7-5,.92-5,5,0,3.88,1.62,6.52,5,7.15l15.16,2.82a1.16,1.16,0,0,1,.94,1.13v6a1.15,1.15,0,0,1-1.34,1.13L186,84.13c-7.86-1.35-11.14-7.75-11.14-15.52,0-4.85,1.28-8.09,3.56-9.72a1.16,1.16,0,0,0,.23-1.72C176.2,54.55,175,50.72,175,45.9c0-8,3.37-12.73,11.19-10.69l15,3.91A1.14,1.14,0,0,1,202,40.23Z"/><path class="cls-4" d="M221.73,44.49c8.2,2.14,12.54,10.54,12.54,25.6S230,91.61,221.73,90.2l-10.27-1.75c-1.68-.29-2.46-1.67-2.46-4.24V45c0-2.57.8-3.61,2.46-3.18ZM214.18,80c0,.62.17.85.56.93l7,1.3c5.48,1,7.75-2.89,7.75-13.22s-2.27-15.18-7.75-16.5l-7-1.72c-.39-.09-.56.07-.56.69Z"/><path class="cls-4" d="M161.56,60.46a1.15,1.15,0,0,1,.68-1.48c4.58-1.65,6.37-7.49,6.37-13.34,0-8.09-3.38-16-11.44-18.11L153,26.44a1.14,1.14,0,0,0-.58,0L138.57,30.1a1.16,1.16,0,0,0-.86,1.11v6.51a1.16,1.16,0,0,0,1.43,1.12l13.6-3.39h0l4.66,1.14c3.48.86,5,4.34,5,8s-1.43,6.8-5,6l-4.66-1h0l-9.52,2.1c-3.89.86-5.55,3.55-5.55,9.25V79.57A1.16,1.16,0,0,0,139,80.7L142.9,80a1.15,1.15,0,0,0,1-1.13V61.38c0-.91.32-1.36.9-1.47l8-1.65h0l.91.19a1.16,1.16,0,0,1,.84.71l7.76,20.26a1.14,1.14,0,0,0,.88.72l4.21.72a1.15,1.15,0,0,0,1.27-1.54Z"/><path class="cls-4" d="M254,52.92c7.15,1.87,11,9.82,11,23.87s-3.85,20.14-11,18.91l-3.44-.58c-7.52-1.28-11.74-9.2-11.74-24s4.26-21.06,11.74-19.1Zm-3.44,6.64c-4.91-1.22-7.13,2.53-7.13,12.57s2.16,14.53,7.13,15.46l3.44.64c4.77.88,6.79-2.73,6.79-12.42s-2-14.24-6.79-15.41Z"/></svg>