<svg id="logo" xmlns="http://www.w3.org/2000/svg" xmlns:xlink="http://www.w3.org/1999/xlink" viewBox="0 0 360 360"><defs><style>.cls-1{fill:url(#linear-gradient);}.cls-2{fill:#fff;}.cls-3{fill:#f8f7f9;}.cls-4{fill:none;}</style><linearGradient id="linear-gradient" x1="180" y1="346.08" x2="180" y2="-61.85" gradientUnits="userSpaceOnUse"><stop offset="0" stop-color="#a555a1"/><stop offset="1" stop-color="#1454a5"/></linearGradient></defs><title>makersforge_logo_polygon</title><path class="cls-1" d="M299.11,239.23V125.08A20.26,20.26,0,0,0,289,107.54L190.13,50.47a20.26,20.26,0,0,0-20.26,0L71,107.54a20.26,20.26,0,0,0-10.13,17.54V239.23A20.26,20.26,0,0,0,71,256.77l98.85,57.07a20.26,20.26,0,0,0,20.26,0L289,256.77A20.26,20.26,0,0,0,299.11,239.23Z"/><path class="cls-2" d="M180,312.11a17.55,17.55,0,0,1-8.74-2.33L73.85,253.53a17.52,17.52,0,0,1-8.74-15.13V125.92a17.52,17.52,0,0,1,8.74-15.14l97.41-56.24a17.54,17.54,0,0,1,17.48,0l97.41,56.24a17.52,17.52,0,0,1,8.74,15.14V238.4a17.52,17.52,0,0,1-8.74,15.13l-97.41,56.25A17.55,17.55,0,0,1,180,312.11Zm0-254.46a12.06,12.06,0,0,0-6,1.6L76.57,115.49a12.09,12.09,0,0,0-6,10.43V238.4a12.09,12.09,0,0,0,6,10.42L174,305.06a12.09,12.09,0,0,0,12,0l97.41-56.24a12.09,12.09,0,0,0,6-10.42V125.92a12.09,12.09,0,0,0-6-10.43L186,59.25A12.06,12.06,0,0,0,180,57.65Z"/><path class="cls-3" d="M183.14,245.11l9.42-16.32a3,3,0,0,0-2.57-4.45H171.15a3,3,0,0,0-2.57,4.45L178,245.11A3,3,0,0,0,183.14,245.11Z"/><path class="cls-4" d="M184.9,157.36a9.06,9.06,0,1,0-9.06,9.06A9.06,9.06,0,0,0,184.9,157.36Z"/><path class="cls-4" d="M219,164.25a15.91,15.91,0,1,0-15.91-15.91A15.9,15.9,0,0,0,219,164.25Zm0-24a7.94,7.94,0,1,1-7.94,7.93A7.93,7.93,0,0,1,219,140.25Z"/><path class="cls-3" d="M219,156.12a7.94,7.94,0,1,0-7.94-7.94A7.94,7.94,0,0,0,219,156.12Z"/><path class="cls-3" d="M160.36,191.69a3.25,3.25,0,0,0-3.46,2.87h7A3.28,3.28,0,0,0,160.36,191.69Z"/><path class="cls-3" d="M213,191.78a4.09,4.09,0,1,0,3.91,4.09A3.87,3.87,0,0,0,213,191.78Z"/><path class="cls-3" d="M125.85,198.49c0,1.49,1.46,1.82,2.57,1.82a4.21,4.21,0,0,0,3.28-1.64v-1.46a7.23,7.23,0,0,0-3.22-.71C127.37,196.5,125.85,197,125.85,198.49Z"/><path class="cls-3" d="M257.48,191.69a3.25,3.25,0,0,0-3.46,2.87h7A3.28,3.28,0,0,0,257.48,191.69Z"/><path class="cls-3" d="M240.8,191.78a4.09,4.09,0,0,0,0,8.17,4,4,0,0,0,3.37-2v-4.24A3.91,3.91,0,0,0,240.8,191.78Z"/><path class="cls-3" d="M263,167.56H246.3a33.42,33.42,0,1,0-60-26.11,19,19,0,0,0-26.47,26.11H98.15a9.94,9.94,0,0,0-9.94,9.94v32.16a9.94,9.94,0,0,0,9.94,9.94H263a9.94,9.94,0,0,0,9.94-9.94V177.5A9.94,9.94,0,0,0,263,167.56Zm-44-35.12a15.91,15.91,0,1,1-15.91,15.9A15.9,15.9,0,0,1,219,132.44Zm-99.69,70.5h-3.57v-8.17c0-1.94-.75-3-2.54-3a3.34,3.34,0,0,0-2.77,1.82v9.34h-3.58v-8.17c0-1.94-.75-3-2.53-3a3.37,3.37,0,0,0-2.78,1.82v9.34H97.93V188.8h3.34v2.06a4.92,4.92,0,0,1,4.18-2.42,4.51,4.51,0,0,1,4.38,2.48,4.94,4.94,0,0,1,4.5-2.48c2.87,0,5,2,5,5.4Zm16,0H132v-1.79a5.72,5.72,0,0,1-4.65,2.14c-2.65,0-5.1-1.73-5.1-4.74,0-2.71,2.48-4.68,5.55-4.68a6.92,6.92,0,0,1,3.94,1v-.8c0-1.85-1.79-2.45-3-2.45a11.43,11.43,0,0,0-4.23,1.05l-1.16-3a14.21,14.21,0,0,1,5.57-1.29c4.06,0,6.44,2.06,6.44,5.28Zm13,0-5.4-6.18v6.18h-3.58V180.39h3.58v14l5.07-5.58h4.62l-6.2,6.68,6.62,7.46Zm19.21-5.79H156.9a4,4,0,0,0,4,2.86,5.68,5.68,0,0,0,3.87-1.43l1.79,2.69a9,9,0,0,1-5.66,2,7.43,7.43,0,0,1-7.61-7.42,7.12,7.12,0,1,1,14.23-.06C167.49,196.08,167.49,196.61,167.46,197.15Zm-.68-39.79a9.06,9.06,0,1,1,9.06,9.06A9.06,9.06,0,0,1,166.78,157.36Zm11.77,34.75a4.06,4.06,0,0,0-1.7-.33,3.75,3.75,0,0,0-3.16,1.91v9.25h-3.58V188.8h3.4v2.06a4.62,4.62,0,0,1,3.85-2.42,7.72,7.72,0,0,1,2.45.45Zm8.24,11.18a8.8,8.8,0,0,1-6.38-2.56l2-2.59a6.66,6.66,0,0,0,4.27,2c1.46,0,2.68-.41,2.68-1.28s-.66-1.1-2.8-1.55c-2.8-.6-5.25-1.79-5.25-4.47,0-2.21,2.21-4.42,6.08-4.42a9,9,0,0,1,5.31,1.73l-1.79,2.63a6.57,6.57,0,0,0-3.52-1.22c-1.34,0-2.56.47-2.56,1.34s1,1.07,3.34,1.58c2.8.59,4.8,1.52,4.8,4.44C193,201.36,190.39,203.29,186.79,203.29Zm17.44-14.49V192h-3.46v10.92H197.2V192h-2.81V188.8h2.81v-3.46c0-3.93,2.77-5.3,5.07-5.3a6.26,6.26,0,0,1,3.13.74l-1.34,3a2.49,2.49,0,0,0-1.44-.42c-.68,0-1.85.39-1.85,2.15v3.28ZM213,203.29a7.43,7.43,0,1,1,7.55-7.42A7.43,7.43,0,0,1,213,203.29Zm18.61-11.18a4,4,0,0,0-1.69-.33,3.75,3.75,0,0,0-3.17,1.91v9.25h-3.57V188.8h3.4v2.06a4.59,4.59,0,0,1,3.84-2.42,7.72,7.72,0,0,1,2.45.45Zm16.14,10.95c0,4.92-3.64,7.09-7.6,7.09a10.17,10.17,0,0,1-6.71-2.68l2-2.75a7.16,7.16,0,0,0,4.69,2.09c2.77,0,4-1.52,4-3.64v-1.7a5,5,0,0,1-4,1.82,7.45,7.45,0,0,1,0-14.85,5.06,5.06,0,0,1,4.26,2.21V188.8h3.31Zm16.82-5.91H254a4,4,0,0,0,4,2.86,5.69,5.69,0,0,0,3.88-1.43l1.79,2.69a9.09,9.09,0,0,1-5.67,2,7.43,7.43,0,0,1-7.6-7.42,7.12,7.12,0,1,1,14.22-.06C264.6,196.08,264.6,196.61,264.57,197.15Z"/></svg>