<?xml version="1.0" encoding="utf-8"?>
<!-- Generator: Adobe Illustrator 25.1.0, SVG Export Plug-In . SVG Version: 6.00 Build 0)  -->
<svg version="1.1" id="Layer_1" xmlns="http://www.w3.org/2000/svg" xmlns:xlink="http://www.w3.org/1999/xlink" x="0px" y="0px"
	 viewBox="0 0 512 512" style="enable-background:new 0 0 512 512;" xml:space="preserve">
<style type="text/css">
	.st0{fill:#6C63FF;}
</style>
<g id="XMLID_1591_">
	<path id="XMLID_1844_" class="st0" d="M152.6,179.9l31.9,31.9l71.5-70.4v29.2h30.1V90.4h-80.2v30.1h28.4l-49.7,48.9l-32-32
		L24.5,265.5l21.3,21.3L152.6,179.9z"/>
	<g>
		<path class="st0" d="M90.4,512h60.2c0-9.9,0-170,0-180.7H90.4V512z"/>
		<path class="st0" d="M180.7,512h60.2c0-9.4,0-196.8,0-210.8h-60.2V512z"/>
		<path class="st0" d="M512,150.6l-56.5-75.3L512,0c-10.1,0-186.5,0-195.8,0v271.1h-45.2V512h120.5V271.1h-45.2V150.6H512z"/>
		<path class="st0" d="M60.2,361.4H0V512h60.2C60.2,505,60.2,368.3,60.2,361.4z"/>
	</g>
</g>
</svg>
