<?xml version="1.0" encoding="utf-8"?>
<!-- Generator: Adobe Illustrator 25.1.0, SVG Export Plug-In . SVG Version: 6.00 Build 0)  -->
<svg version="1.1" id="Capa_1" xmlns="http://www.w3.org/2000/svg" xmlns:xlink="http://www.w3.org/1999/xlink" x="0px" y="0px"
	 viewBox="0 0 512 512" style="enable-background:new 0 0 512 512;" xml:space="preserve">
<style type="text/css">
	.st0{fill:#6C63FF;}
</style>
<g>
	<g id="Teamwork_1_">
		<g>
			<path class="st0" d="M75,346c-24.8,0-45-20.2-45-45s20.2-45,45-45s45,20.2,45,45S99.8,346,75,346z"/>
		</g>
		<g>
			<path class="st0" d="M150,496H0v-70.6c0-39.2,28.1-75.1,67.2-79C112,341.8,150,377.1,150,421V496z"/>
		</g>
		<g>
			<path class="st0" d="M256,346c-24.8,0-45-20.2-45-45s20.2-45,45-45s45,20.2,45,45S280.8,346,256,346z"/>
		</g>
		<g>
			<path class="st0" d="M331,496H181v-70.6c0-39.2,28.1-75.1,67.2-79C293,341.8,331,377.1,331,421V496z"/>
		</g>
		<g>
			<path class="st0" d="M437,346c-24.8,0-45-20.2-45-45s20.2-45,45-45s45,20.2,45,45S461.8,346,437,346z"/>
		</g>
		<g>
			<path class="st0" d="M512,496H362v-70.6c0-39.2,28.1-75.1,67.2-79C474,341.8,512,377.1,512,421V496z"/>
		</g>
		<g>
			<path class="st0" d="M256,16c-57.9,0-105,47.1-105,105c0,5.1,0.4,10.1,1.1,15h61.7c-1.7-4.7-2.8-9.7-2.8-15c0-24.8,20.2-45,45-45
				s45,20.2,45,45s-20.2,45-45,45H91v60h165c59,0,105-47.8,105-105C361,63.1,313.9,16,256,16z"/>
		</g>
	</g>
	<path class="st0" d="M421,166h-38.1c-8.9,23.8-20,42.2-42.3,60H421l30-30L421,166z"/>
</g>
</svg>
